<svg viewBox="0 0 64 64" xmlns="http://www.w3.org/2000/svg">
    <defs>
        <linearGradient id="gin-buck-glass" x1="0%" y1="0%" x2="0%" y2="100%">
            <stop offset="0%" style="stop-color:#f8f9fa;stop-opacity:0.9" />
            <stop offset="100%" style="stop-color:#e9ecef;stop-opacity:0.8" />
        </linearGradient>
        <linearGradient id="gin-buck-liquid" x1="0%" y1="0%" x2="0%" y2="100%">
            <stop offset="0%" style="stop-color:#fff8e1;stop-opacity:0.8" />
            <stop offset="100%" style="stop-color:#ffecb3;stop-opacity:0.9" />
        </linearGradient>
    </defs>
    
    <rect x="24" y="15" width="16" height="40" rx="2" fill="url(#gin-buck-glass)" stroke="#90a4ae" stroke-width="1.5" opacity="0.8"/>
    <rect x="25" y="20" width="14" height="33" rx="1" fill="url(#gin-buck-liquid)"/>
    <rect x="27" y="22" width="3" height="3" fill="#ffffff" opacity="0.7" rx="0.5"/>
    <rect x="33" y="28" width="4" height="4" fill="#ffffff" opacity="0.6" rx="0.5"/>
    <rect x="29" y="38" width="3" height="3" fill="#ffffff" opacity="0.7" rx="0.5"/>
    <!-- レモンスライス -->
    <ellipse cx="32" cy="32" rx="4" ry="3" fill="#fff176" opacity="0.9"/>
    <ellipse cx="32" cy="32" rx="3" ry="2.2" fill="#ffeb3b" opacity="0.6"/>
    <path d="M30 32 L34 32 M32 30 L32 34" stroke="#f57f17" stroke-width="0.5"/>
    <!-- 泡 -->
    <circle cx="29" cy="24" r="0.6" fill="#ffffff" opacity="0.5"/>
    <circle cx="35" cy="30" r="0.5" fill="#ffffff" opacity="0.6"/>
    <circle cx="31" cy="42" r="0.7" fill="#ffffff" opacity="0.5"/>
    <rect x="26" y="16" width="1" height="35" fill="#ffffff" opacity="0.4" rx="0.5"/>
</svg>