<svg viewBox="0 0 64 64" xmlns="http://www.w3.org/2000/svg">
    <defs>
        <linearGradient id="gin-tonic-glass" x1="0%" y1="0%" x2="0%" y2="100%">
            <stop offset="0%" style="stop-color:#f8f9fa;stop-opacity:0.9" />
            <stop offset="100%" style="stop-color:#e9ecef;stop-opacity:0.8" />
        </linearGradient>
        <linearGradient id="gin-tonic-liquid" x1="0%" y1="0%" x2="0%" y2="100%">
            <stop offset="0%" style="stop-color:#e8f5e8;stop-opacity:0.8" />
            <stop offset="100%" style="stop-color:#c8e6c9;stop-opacity:0.9" />
        </linearGradient>
        <radialGradient id="gin-tonic-lime" cx="50%" cy="50%" r="50%">
            <stop offset="0%" style="stop-color:#81c784;stop-opacity:1" />
            <stop offset="100%" style="stop-color:#4caf50;stop-opacity:1" />
        </radialGradient>
    </defs>
    
    <!-- ハイボールグラス -->
    <rect x="24" y="15" width="16" height="40" rx="2" fill="url(#gin-tonic-glass)" stroke="#90a4ae" stroke-width="1.5" opacity="0.8"/>
    
    <!-- 液体（ジントニック） -->
    <rect x="25" y="20" width="14" height="33" rx="1" fill="url(#gin-tonic-liquid)"/>
    
    <!-- 氷 -->
    <rect x="27" y="22" width="3" height="3" fill="#ffffff" opacity="0.7" rx="0.5"/>
    <rect x="33" y="26" width="4" height="4" fill="#ffffff" opacity="0.6" rx="0.5"/>
    <rect x="28" y="32" width="3.5" height="3.5" fill="#ffffff" opacity="0.8" rx="0.5"/>
    <rect x="32" y="38" width="3" height="3" fill="#ffffff" opacity="0.7" rx="0.5"/>
    
    <!-- ライムスライス -->
    <circle cx="32" cy="28" r="4" fill="url(#gin-tonic-lime)" opacity="0.9"/>
    <circle cx="32" cy="28" r="3" fill="#a5d6a7" opacity="0.3"/>
    <path d="M30 26 Q32 30 34 26" stroke="#2e7d32" stroke-width="0.8" fill="none"/>
    <path d="M30 30 Q32 26 34 30" stroke="#2e7d32" stroke-width="0.8" fill="none"/>
    
    <!-- 炭酸の泡 -->
    <circle cx="29" cy="24" r="0.8" fill="#ffffff" opacity="0.6"/>
    <circle cx="35" cy="30" r="0.6" fill="#ffffff" opacity="0.7"/>
    <circle cx="31" cy="35" r="0.7" fill="#ffffff" opacity="0.5"/>
    <circle cx="36" cy="42" r="0.5" fill="#ffffff" opacity="0.6"/>
    <circle cx="28" cy="45" r="0.6" fill="#ffffff" opacity="0.8"/>
    
    <!-- グラスの輝き -->
    <rect x="26" y="16" width="1" height="35" fill="#ffffff" opacity="0.4" rx="0.5"/>
</svg>